<?xml version="1.0" encoding="UTF-8" standalone="no"?>
<!-- Created with Inkscape (http://www.inkscape.org/) -->

<svg
   width="492.21283"
   height="448.84335"
   viewBox="0 0 130.23131 118.75647"
   version="1.1"
   id="svg5"
   inkscape:version="1.1.2 (0a00cf5339, 2022-02-04)"
   sodipodi:docname="eiffeltower.svg"
   xmlns:inkscape="http://www.inkscape.org/namespaces/inkscape"
   xmlns:sodipodi="http://sodipodi.sourceforge.net/DTD/sodipodi-0.dtd"
   xmlns="http://www.w3.org/2000/svg"
   xmlns:svg="http://www.w3.org/2000/svg"
   xmlns:rdf="http://www.w3.org/1999/02/22-rdf-syntax-ns#"
   xmlns:cc="http://creativecommons.org/ns#">
  <sodipodi:namedview
     id="namedview7"
     pagecolor="#ffffff"
     bordercolor="#666666"
     borderopacity="1.0"
     inkscape:pageshadow="2"
     inkscape:pageopacity="0.0"
     inkscape:pagecheckerboard="0"
     inkscape:document-units="px"
     showgrid="false"
     units="px"
     width="800px"
     inkscape:snap-global="false"
     fit-margin-left="10"
     fit-margin-top="10"
     fit-margin-right="10"
     fit-margin-bottom="10"
     inkscape:zoom="1.6074894"
     inkscape:cx="215.24248"
     inkscape:cy="260.34386"
     inkscape:window-width="1920"
     inkscape:window-height="1029"
     inkscape:window-x="1920"
     inkscape:window-y="27"
     inkscape:window-maximized="1"
     inkscape:current-layer="layer1" />
  <defs
     id="defs2">
    <marker
       style="overflow:visible"
       id="Arrow2Mstart"
       refX="0"
       refY="0"
       orient="auto"
       inkscape:stockid="Arrow2Mstart"
       inkscape:isstock="true">
      <path
         transform="scale(0.6)"
         d="M 8.7185878,4.0337352 -2.2072895,0.01601326 8.7185884,-4.0017078 c -1.7454984,2.3720609 -1.7354408,5.6174519 -6e-7,8.035443 z"
         style="fill:context-stroke;fill-rule:evenodd;stroke:context-stroke;stroke-width:0.625;stroke-linejoin:round"
         id="path14897" />
    </marker>
    <marker
       style="overflow:visible"
       id="Arrow2Mend"
       refX="0"
       refY="0"
       orient="auto"
       inkscape:stockid="Arrow2Mend"
       inkscape:isstock="true">
      <path
         transform="scale(-0.6)"
         d="M 8.7185878,4.0337352 -2.2072895,0.01601326 8.7185884,-4.0017078 c -1.7454984,2.3720609 -1.7354408,5.6174519 -6e-7,8.035443 z"
         style="fill:context-stroke;fill-rule:evenodd;stroke:context-stroke;stroke-width:0.625;stroke-linejoin:round"
         id="path14900" />
    </marker>
  </defs>
  <g
     inkscape:label="Layer 1"
     inkscape:groupmode="layer"
     id="layer1"
     transform="translate(-20.678052,-14.169518)">
    <g
       id="g864"
       transform="matrix(0.05512149,0,0,0.05512149,23.442698,16.760257)"
       style="stroke-width:4.8">
      <path
         d="m 371,1 c 0,1.7928 0,3.5856 0,5.6754 3.1156,0.2445 6.3162,1.6389 6.4228,-3.3596 0.3531,2.0479 0.7062,4.0958 1.1506,6.6732 -2.4914,0.2529 -4.7224,0.4794 -7.3257,0.7436 -0.1255,1.4959 -0.3484,2.9238 -0.3499,4.352 -0.0223,21.8303 -0.2111,43.6641 0.1733,65.4876 0.0652,3.7031 2.8299,7.3002 3.9487,11.0648 0.6826,2.297 1.0436,4.8735 0.7607,7.2297 -0.4067,3.3867 2.2062,7.6776 -2.5941,10.0617 -0.3336,0.1657 -0.1742,2.3479 0.3924,3.1329 3.2401,4.4883 3.2336,13.2663 0.1163,17.4642 -0.6358,0.8563 -0.59,3.0179 0.0615,3.8931 2.897,3.8923 3.0266,13.6131 0.1478,17.1991 -0.6794,0.8462 -0.9098,3.3442 -0.6836,3.4353 4.4993,1.8116 1.9562,5.6888 2.6925,8.5564 0.3793,1.4774 0.6083,3.7155 1.5986,4.2039 12.0382,5.9364 18.5288,16.317 23.2351,28.2197 0.4892,1.2372 1.0104,2.4618 1.6767,4.0808 3.015,0 6.1187,0 9.5057,0 0,5.1783 0,9.9422 0,14.4297 -2.0557,0.9646 -3.9575,1.857 -5.8593,2.7493 1.4883,0.8992 2.9766,1.7984 5.1732,3.1254 0,4.6091 0,10.1639 0,16.047 -1.5847,0.2376 -3.1574,0.4734 -4.7447,0.7114 -1.5942,4.1084 1.0082,4.0649 3.7014,4.0146 2.4889,-0.0465 4.9794,-0.01 8.2015,-0.01 0.6693,9.5112 1.3228,18.7991 1.8456,26.2295 -4.1078,3.606 -7.3062,5.6669 -9.5226,8.4969 -7.1563,9.1371 -9.1574,20.2626 -10.5312,31.3322 -0.9783,7.8829 -1.1354,15.9439 -0.846,23.8959 2.5145,69.0996 4.8686,138.2079 7.9481,207.2834 3.4505,77.3964 7.2257,154.7828 11.579,232.133 3.3885,60.2062 7.5691,120.3732 11.9834,180.5146 3.2673,44.5142 6.6931,89.0441 11.4969,133.4102 4.3712,40.37 10.6844,80.5303 16.1697,120.7791 0.7855,5.7638 1.7287,11.5063 2.6687,17.7203 7.3515,0 14.6183,0 21.7651,0 0.8004,4.2999 1.6515,8.0909 2.1089,11.9291 0.1024,0.8595 -1.0937,2.6292 -1.8301,2.7092 -4.3879,0.4767 -6.4663,3.4833 -7.6161,7.031 -3.408,10.5153 -5.4131,21.1913 -2.6185,32.2673 15.9972,63.4027 31.4259,126.9556 48.1893,190.1547 6.8099,25.6736 16.5431,50.5687 24.8087,75.863 0.9349,2.8607 2.542,3.3431 5.1542,3.3091 8.7884,-0.1149 17.5792,-0.044 26.3507,-0.044 0,15.3308 0,30.0577 0,45.1138 3.3297,0.3149 6.3163,0.5974 9.6169,0.9095 -7.0198,9.2853 -10.4893,25.4117 -7.3981,33.9413 -0.9554,0.5508 -1.9647,1.1327 -3.1775,1.8319 10.9536,22.4906 21.7955,44.7814 32.6629,67.0597 31.6002,64.7809 63.2236,129.5507 94.7839,194.351 1.8188,3.7345 4.1771,6.1594 8.1887,8.0043 6.1494,2.8286 11.6587,7.0488 17.4405,10.679 -1.4589,6.6013 3.6301,9.3694 7.3774,12.9135 -1.3333,0.3334 -2.6664,0.9567 -4.0001,0.958 C 684,1921.0078 635,1921 586,1921 c 1.1193,-4.0438 3.201,-8.076 -0.7626,-11.923 -0.5778,-0.561 -0.3848,-2.851 0.2827,-3.6021 3.254,-3.6606 4.5316,-7.8728 4.5386,-12.6567 0.0457,-31.0323 -10.3522,-59.001 -24.8798,-85.8313 -30.874,-57.0192 -103.08,-107.4421 -175.689,-112.4075 -60.7076,-4.1514 -114.576,11.485 -162.1179,49.3146 -41.5111,33.0313 -68.164,75.2056 -77.6483,127.5934 -2.1008,11.6042 -5.3472,23.9421 3.3321,34.8429 0.4419,0.5548 0.2975,2.312 -0.2269,2.7843 -4.1758,3.7604 -1.7248,7.8563 -0.8289,11.8854 -49,0 -98,0.01 -146.9999,-0.042 -1.3337,0 -2.6668,-0.6247 -4.0001,-0.9581 3.6146,-3.4304 8.4598,-6.1499 7.3925,-13.2753 6.372,-3.5896 13.4044,-7.3024 20.1397,-11.4927 2.1027,-1.3081 3.8861,-3.6693 5.0007,-5.9473 29.9281,-61.1628 59.7509,-122.3773 89.5889,-183.5844 11.381,-23.3461 22.7383,-46.7039 34.1546,-70.0326 1.4243,-2.9103 2.392,-5.4476 1.6747,-9.0864 -0.9246,-4.6901 0.3462,-9.7689 -0.1221,-14.6034 -0.6998,-7.2241 -2.0268,-14.4061 -8.4045,-20.6892 3.6515,-0.332 6.5798,-0.5984 10.0032,-0.9097 0,-14.8922 0,-29.6169 0,-45.1871 7.3595,0 14.7742,0 22.1888,-4e-4 8.2023,0 7.9718,-0.094 10.9848,-7.7145 20.2079,-51.1115 32.0708,-104.6132 45.36,-157.7092 8.8488,-35.3546 17.9749,-70.642 26.491,-106.0763 2.5739,-10.7094 0.6228,-21.54 -3.8424,-31.5874 -1.0218,-2.2992 -4.3841,-3.5082 -6.5254,-5.3833 -0.9234,-0.8085 -2.186,-2.1141 -2.0802,-3.0577 0.4133,-3.6864 1.312,-7.3185 2.1396,-11.5261 6.9288,0 14.18,0 21.7236,0 2.7094,-18.2045 5.6919,-35.9119 7.9254,-53.7131 5.4102,-43.1206 10.9931,-86.2308 15.5021,-129.4501 3.3697,-32.2986 5.2884,-64.7524 7.6434,-97.1525 3.0315,-41.7084 6.0662,-83.4186 8.6977,-125.1534 2.097,-33.2574 3.6509,-66.5499 5.3405,-99.8322 2.602,-51.2566 5.1968,-102.5138 7.6393,-153.7781 2.2126,-46.4393 4.4301,-92.8802 6.2448,-139.336 1.379,-35.3001 2.4617,-70.6198 2.9919,-105.941 0.2055,-13.6946 -2.473,-27.2204 -9.26,-39.4546 -2.4683,-4.4493 -5.2104,-9.0273 -11.9352,-9.925 0.6554,-9.2014 1.3083,-18.3676 1.9683,-27.6327 4.3059,-0.5349 8.2806,-0.9966 12.2256,-1.6399 0.1522,-0.0248 0.0194,-1.7968 0.0194,-2.9919 -1.7043,-0.1716 -3.1521,-0.3174 -5.0156,-0.505 0,-5.6203 0,-11.176 0,-16.4994 1.7855,-0.9703 3.4507,-1.8752 5.1159,-2.7801 -1.7348,-0.8528 -3.4696,-1.7057 -5.7657,-2.8345 0,-4.1901 0,-9.0668 0,-14.3386 3.2409,0 6.3452,0 9.5052,0 3.7485,-10.2509 8.1871,-19.7142 16.465,-26.7751 0.7602,-0.6484 1.3844,-1.6034 2.2567,-1.9492 6.0888,-2.4132 9.1331,-6.4755 7.8633,-13.2819 -0.1209,-0.648 1.4228,-1.4692 1.7392,-2.3697 0.4335,-1.2336 1.0584,-3.0164 0.5144,-3.8763 -3.378,-5.3395 -3.3705,-11.843 0.165,-17.8266 0.4951,-0.8379 0.5005,-2.4764 0.003,-3.3075 -3.515,-5.871 -3.5817,-12.7472 -0.1718,-17.7853 0.5429,-0.8021 0.7231,-2.817 0.2311,-3.2044 -5.6829,-4.4737 -1.6049,-10.4433 -2.3514,-15.611 -0.2892,-2.0013 2.1177,-4.2605 2.7246,-6.5535 0.9317,-3.52 1.896,-7.1659 1.9294,-10.7669 0.1837,-19.8314 0.0887,-39.6654 0.0893,-59.4985 1e-4,-1.7889 0,-3.5777 0,-5.5841 -2.639,-0.2526 -4.748,-0.4544 -7.4671,-0.7146 0.3003,-2.3036 0.5806,-4.4544 0.7749,-5.9445 1.7897,1.1066 3.6452,2.2539 6.5239,4.0338 0,-3.5812 0,-5.3726 0,-7.164 C 368.3333,1 369.6667,1 371,1 Z m -46.559,1327.0408 c -11.922,72.7325 -22.6619,145.1182 -38.1751,216.7688 55.1111,0 110.597,0 165.2077,0 -12.8733,-72.3667 -25.707,-144.5107 -38.561,-216.7688 -29.2546,0 -58.6885,0 -88.4716,0 z"
         id="path862"
         style="stroke-width:4.8" />
    </g>
    <text
       xml:space="preserve"
       style="font-size:2.82222px;line-height:1.25;font-family:sans-serif;fill:#b1b1b1;fill-opacity:1;stroke-width:0.264583"
       x="23.08135"
       y="129.69312"
       id="text4135"><tspan
         sodipodi:role="line"
         id="tspan4133"
         style="font-size:2.82222px;fill:#b1b1b1;fill-opacity:1;stroke-width:0.264583"
         x="23.08135"
         y="129.69312">(https://freesvg.org/eiffel-tower-silhouette)</tspan></text>
    <path
       style="fill:none;stroke:#000000;stroke-width:0.264583;stroke-linecap:butt;stroke-linejoin:miter;stroke-miterlimit:4;stroke-dasharray:1.05833, 2.11666;stroke-dashoffset:0;stroke-opacity:1;marker-start:url(#Arrow2Mstart);marker-end:url(#Arrow2Mend)"
       d="M 147.45408,122.51639 H 42.898261"
       id="path14791" />
    <path
       style="fill:none;stroke:#000000;stroke-width:0.264583;stroke-linecap:butt;stroke-linejoin:miter;stroke-miterlimit:4;stroke-dasharray:0.264583, 1.05833;stroke-dashoffset:0;stroke-opacity:1"
       d="M 43.623475,17.221862 148.16965,122.5302"
       id="path15182" />
    <path
       style="fill:none;fill-opacity:1;stroke:#000000;stroke-width:0.132292;stroke-miterlimit:4;stroke-dasharray:none;stroke-dashoffset:0;stop-color:#000000"
       id="path15780"
       sodipodi:type="arc"
       sodipodi:cx="148.04228"
       sodipodi:cy="122.4394"
       sodipodi:rx="10.287596"
       sodipodi:ry="10.287596"
       sodipodi:start="3.1458504"
       sodipodi:end="3.9346681"
       sodipodi:arc-type="arc"
       d="m 137.75478,122.3956 a 10.287596,10.287596 0 0 1 3.06914,-7.28626"
       sodipodi:open="true" />
    <text
       xml:space="preserve"
       style="font-size:3.52777px;line-height:1.25;font-family:sans-serif;stroke-width:0.264583"
       x="129.93921"
       y="117.98045"
       id="text17916"><tspan
         sodipodi:role="line"
         id="tspan22626"
         x="129.93921"
         y="117.98045">45°</tspan></text>
    <text
       xml:space="preserve"
       style="font-size:3.52777px;line-height:1.25;font-family:sans-serif;stroke-width:0.264583"
       x="92.239143"
       y="120.76056"
       id="text24580"><tspan
         sodipodi:role="line"
         id="tspan24578"
         style="stroke-width:0.264583"
         x="92.239143"
         y="120.76056">330m</tspan></text>
  </g>
  <inkscape:templateinfo>
    <inkscape:name>800x600</inkscape:name>
    <inkscape:date>2022-07-05</inkscape:date>
  </inkscape:templateinfo>
  <metadata
     id="metadata848">
    <rdf:RDF>
      <cc:License
         rdf:about="http://creativecommons.org/publicdomain/zero/1.0/">
        <cc:permits
           rdf:resource="http://creativecommons.org/ns#Reproduction" />
        <cc:permits
           rdf:resource="http://creativecommons.org/ns#Distribution" />
        <cc:permits
           rdf:resource="http://creativecommons.org/ns#DerivativeWorks" />
      </cc:License>
      <cc:Work
         rdf:about="">
        <cc:license
           rdf:resource="http://creativecommons.org/publicdomain/zero/1.0/" />
      </cc:Work>
    </rdf:RDF>
  </metadata>
</svg>
